<?xml version="1.0" encoding="UTF-8"?>
<svg xmlns="http://www.w3.org/2000/svg" width="259" height="128" viewBox="0 0 259 128" fill="none">
  <g clip-path="url(#clip0_1451_5834)">
    <path d="M136.056 8.91022C136.152 9.84304 135.734 10.615 135.123 11.1619C134.222 11.966 131.874 14.5071 131.263 15.1183C131.166 15.2148 131.038 15.2148 130.973 15.1183C130.362 14.475 128.014 11.966 127.113 11.1619C126.502 10.615 126.084 9.84304 126.181 8.91022C126.309 7.72007 127.306 6.75508 128.497 6.65858C129.622 6.56208 130.62 7.23757 131.038 8.20256C131.07 8.26689 131.134 8.26689 131.166 8.20256C131.585 7.23757 132.582 6.59425 133.707 6.65858C134.962 6.75508 135.927 7.72007 136.056 8.91022Z" fill="#E19543"></path>
    <path d="M134.447 41.9451C132.003 41.3661 128.239 30.3652 141.652 30.3652C139.401 30.8156 129.558 34.386 134.447 41.9451Z" fill="#F6CE7B"></path>
    <path d="M142.971 49.9551C142.328 50.5984 141.588 51.2417 140.784 51.8851C136.184 55.4555 133.354 56.2275 131.166 59.5085C128.979 56.2275 126.148 55.4555 121.549 51.8851C120.712 51.2417 120.005 50.5984 119.361 49.9551C119.683 50.2124 120.037 50.4697 120.423 50.7271C125.569 54.2975 128.722 55.0695 131.166 58.3505C133.611 55.0695 136.763 54.2975 141.91 50.7271C142.264 50.5019 142.618 50.2446 142.971 49.9551Z" fill="#F6CE7B"></path>
    <path d="M141.91 50.7266C136.763 54.2971 133.611 55.0691 131.166 58.35C128.722 55.0691 125.569 54.2971 120.423 50.7266C111.706 44.6794 112.639 37.8923 114.054 36.1875C114.054 36.1875 114.504 42.6207 122.449 48.3785C127.982 52.3993 130.459 52.9783 131.166 54.3293C131.842 52.9783 134.351 52.3993 139.883 48.3785C147.828 42.6529 148.279 36.1875 148.279 36.1875C149.694 37.9245 150.627 44.7116 141.91 50.7266Z" fill="#E19543"></path>
    <path d="M131.263 42.6851C135.702 46.3842 136.828 49.054 137.117 50.3085C137.374 50.1476 137.664 49.9546 137.953 49.7616C137.374 48.6358 136.023 46.1268 134.093 43.9395C132.549 42.1704 130.233 39.6936 126.888 37.4741C126.888 37.4741 122.353 34.3862 123.961 32.7457C125.569 31.1052 130.459 34.5792 131.134 38.3748C130.812 32.9708 125.569 28.7892 123.028 32.5205C120.584 36.0588 125.666 37.9888 131.263 42.6851Z" fill="#F6CE7B"></path>
    <path d="M137.953 49.7292C137.664 49.9222 137.407 50.1152 137.117 50.276C136.828 49.0537 135.702 46.3839 131.263 42.6526C125.666 37.9564 120.584 36.0264 123.028 32.4881C123.189 32.2629 123.35 32.0378 123.543 31.877C123.253 32.6168 123.35 33.3244 123.672 33.9999C124.154 35.6082 126.856 37.4417 126.856 37.4417C130.201 39.6934 132.517 42.138 134.061 43.9071C135.991 46.0944 137.374 48.6034 137.953 49.7292Z" fill="#E19543"></path>
    <path d="M131.166 38.3429C130.459 34.5473 125.601 31.0733 123.993 32.7138C123.639 33.0998 123.575 33.518 123.736 34.0005C123.382 33.325 123.318 32.6495 123.607 31.8775C126.245 29.272 130.845 33.2606 131.166 38.3429Z" fill="#F6CE7B"></path>
    <path d="M146.188 30.0438C144.258 26.1516 141.138 24.7363 138.404 24.7363C132.71 24.7363 132.453 27.8243 131.166 29.0144V38.3105C131.166 38.3105 131.938 30.1724 135.573 27.9208C138.532 26.0551 141.878 27.3418 141.427 31.5234C140.945 35.8658 134.93 41.2376 133.096 42.7816C133.45 43.1676 133.804 43.5536 134.093 43.8752C135.573 45.5479 136.731 47.4457 137.439 48.7323C139.272 46.352 141.395 44.4542 142.714 43.0711C145.802 39.7901 149.083 35.9623 146.188 30.0438Z" fill="#E19543"></path>
    <path d="M141.427 26.8593C139.497 25.1223 136.313 25.2831 134.126 27.2131C131.52 29.4647 131.198 33.196 131.166 33.2603V38.3748C131.166 38.3748 131.166 38.3104 131.166 38.2461C131.166 38.2139 131.166 38.2139 131.166 38.1818C131.166 38.1496 131.166 38.1174 131.166 38.0853C131.166 38.0531 131.166 37.9888 131.198 37.9566C131.198 37.8923 131.231 37.8279 131.231 37.7636C131.231 37.7314 131.231 37.6993 131.263 37.6349C131.295 37.4098 131.327 37.1203 131.391 36.7665C131.391 36.7021 131.424 36.67 131.424 36.6056C131.424 36.5413 131.456 36.5091 131.456 36.4448C131.488 36.3161 131.488 36.2196 131.52 36.091C131.552 35.898 131.584 35.705 131.649 35.512C131.649 35.4798 131.649 35.4476 131.681 35.4155C131.681 35.3511 131.713 35.2868 131.713 35.2225C131.745 35.1581 131.745 35.0938 131.745 35.0295C131.777 34.933 131.81 34.8365 131.81 34.7078C131.842 34.6435 131.842 34.5792 131.874 34.4827C131.938 34.1932 132.035 33.9037 132.131 33.6142C132.163 33.4533 132.228 33.3247 132.26 33.1638C132.292 33.0995 132.292 33.003 132.324 32.9387C132.389 32.7778 132.421 32.6492 132.485 32.4883C132.582 32.1989 132.71 31.9094 132.839 31.6199C132.903 31.4912 132.968 31.3304 133.032 31.2017C133.193 30.8479 133.386 30.494 133.579 30.1724C133.611 30.108 133.643 30.0437 133.707 29.9794C133.868 29.7221 134.029 29.4969 134.222 29.2396C134.351 29.0787 134.512 28.9179 134.64 28.7571C134.93 28.4676 135.251 28.1781 135.573 27.9851C135.734 27.8886 135.927 27.7921 136.088 27.6956C136.12 27.6634 136.152 27.6634 136.184 27.6312C136.216 27.6312 136.249 27.5991 136.249 27.5991C136.281 27.5991 136.313 27.5669 136.345 27.5669C139.079 26.3768 141.845 27.7599 141.427 31.5877C140.945 35.9301 134.93 41.3019 133.096 42.8459C133.289 43.071 133.482 43.264 133.675 43.4892C134.608 42.7172 138.532 39.3719 140.398 36.5735C142.778 32.9387 143.196 28.4676 141.427 26.8593Z" fill="#F6CE7B"></path>
    <path d="M120.165 40.1761C123.318 42.0739 129.269 44.4864 129.14 51.8203C129.14 52.142 129.14 52.4315 129.14 52.6566C129.526 52.8818 129.88 53.107 130.169 53.2999C130.234 53.107 130.33 52.8818 130.426 52.6245C132.035 48.3142 128.046 43.8431 128.046 43.8431C128.046 43.8431 120.648 35.898 120.455 31.8451C120.262 27.8243 123.865 26.0551 126.824 27.9208C130.459 30.2046 131.231 38.3105 131.231 38.3105V29.0144C129.944 27.8243 129.687 24.7363 123.993 24.7363C121.259 24.7363 118.139 26.1195 116.209 30.0438C113.218 35.9623 118.042 38.8895 120.165 40.1761Z" fill="#E19543"></path>
    <path d="M129.108 51.8201C129.108 52.1417 129.108 52.4312 129.108 52.6564C129.526 52.8816 129.847 53.1067 130.137 53.2997C130.201 52.7529 130.298 52.1096 130.298 51.8844C130.426 44.5505 124.476 42.0415 121.323 40.1759C120.584 39.7256 118.975 39.0822 117.335 38.1494C118.3 39.0501 119.361 39.7256 120.133 40.1759C123.318 42.0737 129.268 44.4862 129.108 51.8201Z" fill="#F6CE7B"></path>
    <path d="M131.166 33.2278V38.3422C131.166 38.3422 130.394 30.2041 126.759 27.9525C123.768 26.0547 120.198 27.8238 120.391 31.8446C120.551 35.1256 125.473 41.012 127.306 43.1028C123.318 38.889 119.04 38.5995 118.589 32.6166C118.139 26.312 124.379 23.9317 128.207 27.2127C130.812 29.4321 131.134 33.1956 131.166 33.2278Z" fill="#F6CE7B"></path>
    <path d="M141.652 30.333C141.62 30.333 141.62 30.333 141.588 30.333C132.131 30.6547 131.617 37.3131 133.032 40.5619C131.198 37.5382 130.845 30.333 141.652 30.333Z" fill="#E19543"></path>
    <path d="M131.713 26.6008C131.713 26.6008 131.585 24.8316 136.024 21.1325C139.884 17.9159 138.822 12.6406 138.822 12.6406C138.822 12.6406 137.632 16.3076 134.994 18.334C132.55 20.1997 131.713 22.966 131.713 26.6008Z" fill="#F6CE7B"></path>
    <path d="M153.265 30.2999C153.833 30.2999 154.294 29.839 154.294 29.2705C154.294 28.7021 153.833 28.2412 153.265 28.2412C152.696 28.2412 152.235 28.7021 152.235 29.2705C152.235 29.839 152.696 30.2999 153.265 30.2999Z" fill="#E19543"></path>
    <path d="M151.624 59.604C151.27 60.4404 150.53 61.0837 149.63 61.2767C148.922 61.4375 148.214 61.341 147.539 61.1159C145.931 60.6012 144.515 59.5075 142.843 59.218C141.846 59.025 140.816 59.0894 139.819 59.3467C139.24 59.4754 138.661 59.7005 138.114 59.9579C137.889 60.0544 137.696 60.1509 137.471 60.2795C133.965 62.2417 132.292 66.8414 131.617 69.4147C131.745 69.1252 132.26 67.9994 132.936 66.7449C133.547 65.6513 134.286 64.429 135.058 63.6248C137.439 61.0515 141.813 59.3467 143.486 60.6012C145.673 62.2417 143.197 64.1716 142.489 64.0108C142.489 64.0108 145.287 60.6977 139.047 62.113C137.374 62.499 135.863 63.657 134.64 65.008C135.895 64.1395 138.114 62.9172 139.53 64.3968C140.72 65.6513 138.693 66.7449 137.953 66.2625C137.053 65.7156 138.114 64.2681 138.565 64.8793C138.886 65.3296 138.114 65.201 138.179 65.6513C138.275 66.359 139.916 65.2975 138.79 64.5576C138.114 64.1073 136.699 64.2681 135.348 65.0401C134.254 65.6835 133.322 66.5841 132.646 67.6456C132.099 68.5141 131.745 69.2217 131.649 69.4147C131.649 69.4469 131.649 69.4469 131.617 69.4469C131.617 68.0638 132.228 65.0401 133.129 63.078C135.091 58.7999 139.401 53.6211 141.62 56.0336C142.392 56.8699 141.846 58.2209 140.398 59.0572C141.331 58.7999 142.296 58.6069 143.261 58.4782C143.872 58.4139 144.515 58.3817 145.094 58.6391C145.866 58.9929 146.478 59.604 147.346 59.797C148.054 59.9579 148.826 59.8614 149.437 59.5075C149.951 59.2502 150.498 58.6712 150.37 58.0601C150.305 57.7706 150.08 57.5132 149.791 57.4489C149.501 57.3846 149.179 57.4489 148.954 57.6741C149.308 57.8349 149.437 58.3496 149.212 58.6712C148.986 58.9929 148.504 59.0894 148.15 58.9285C147.796 58.7677 147.539 58.3817 147.475 57.9957C147.346 57.3524 147.603 56.6769 148.118 56.2588C148.633 55.8406 149.34 55.7119 149.951 55.8728C150.595 56.0336 151.142 56.4839 151.463 57.0307C151.914 57.7706 151.978 58.7677 151.624 59.604Z" fill="#E19543"></path>
    <path d="M142.071 58.4458C142.071 58.4458 143.164 57.6738 143.357 57.5773C143.647 57.4164 144.387 57.2556 144.708 57.6094C144.998 57.9311 144.515 57.8346 143.808 57.8668C143.1 57.8989 142.071 58.4458 142.071 58.4458Z" fill="#E19543"></path>
    <path d="M156.771 41.0759C156.899 41.3975 155.774 41.6548 155.548 41.7513C154.648 42.1052 153.586 43.231 153.522 43.2953C153.972 42.6842 154.326 42.0087 154.905 41.494C155.162 41.2689 155.516 41.0437 155.838 40.9472C156.063 40.8829 156.674 40.8185 156.771 41.0759Z" fill="#F6CE7B"></path>
    <path d="M157.639 25.7006C157.253 26.7621 157.414 28.5634 157.414 28.5634C157.35 28.2417 157.285 27.92 157.221 27.5984C156.932 27.0837 156.61 26.5691 156.449 25.9901C156.353 25.6684 156.288 25.2824 156.353 24.9286C156.385 24.7356 156.546 24.1566 156.803 24.1566C157.125 24.1566 156.899 25.2824 156.899 25.5076C156.867 25.9579 156.996 26.5047 157.092 26.9872C157.06 26.6977 157.028 26.4082 157.028 26.0866C157.028 25.6684 157.092 25.2502 157.285 24.8642C157.382 24.6391 157.768 24.0923 158.025 24.1566C158.315 24.2853 157.704 25.4754 157.639 25.7006Z" fill="#F6CE7B"></path>
    <path d="M141.685 58.4462C144.129 55.1331 150.82 49.1823 155.452 51.8843C157.671 53.171 155.323 56.2268 153.747 54.8114C154.23 54.8114 155.002 54.9401 155.066 53.8143C155.13 52.399 151.882 51.3053 147.539 53.8465C143.229 56.3876 141.685 58.4462 141.685 58.4462Z" fill="#E19543"></path>
    <path d="M142.071 57.6417C142.135 57.5774 144.065 54.9397 144.065 54.9397C146.317 52.0126 149.887 47.8632 152.493 46.7373C154.776 45.7723 155.034 46.5122 155.034 46.5122C155.034 46.5122 153.811 47.445 154.776 48.5065C155.645 49.4715 157.285 48.796 157.575 47.5093C157.768 46.7373 157.446 44.5822 154.165 45.1934C153.104 45.3863 151.914 46.1262 150.756 47.059C152.46 45.129 153.554 43.3599 154.197 41.7516C154.487 41.3977 154.809 41.0761 155.034 40.7222C155.548 40.0468 156.031 39.3713 156.546 38.6636C157.704 37.0231 160.148 33.8708 162.625 35.447C163.204 35.833 163.751 36.7015 163.14 37.3126C162.85 37.6021 162.336 37.8273 161.917 37.8594C161.885 37.8594 161.885 37.8594 161.885 37.8916C162.4 38.2776 163.268 38.1489 163.751 37.7629C164.201 37.4091 164.491 36.798 164.426 36.219C164.33 35.254 163.59 34.3212 162.722 33.903C162.078 33.6135 161.371 33.5813 160.695 33.71C159.344 33.9995 158.283 34.7393 157.414 35.7686C157.318 35.8651 157.221 35.9938 157.157 36.0903C157.382 35.64 157.639 35.2218 157.897 34.868C158.09 34.6107 159.248 33.4205 158.958 33.2275C158.733 33.0988 158.09 33.6457 157.897 33.8708C157.543 34.2568 157.285 34.7393 157.092 35.1896C156.867 35.7365 156.739 36.2833 156.61 36.798C156.256 37.2805 155.902 37.7951 155.581 38.3098C155.999 36.1546 156.964 32.3912 158.604 30.7829C160.985 28.4669 162.432 30.3325 162.303 31.2332C162.143 32.166 160.856 32.2625 160.856 32.2625C161.21 32.4877 161.692 32.6485 162.11 32.6164C163.075 32.5199 163.526 31.6835 163.494 30.8472C163.429 27.7914 159.601 27.3089 157.961 29.4641C157.929 29.5284 157.864 29.5927 157.832 29.6249C157.993 29.3032 158.154 29.0137 158.315 28.7564C158.508 28.4669 159.698 27.0516 159.344 26.8586C159.087 26.7299 158.411 27.3733 158.218 27.6306C157.864 28.0809 157.607 28.6277 157.414 29.1424C157.157 29.9144 157.028 30.6542 156.932 31.4262C156.899 31.587 156.835 31.7157 156.803 31.8765C156.803 31.5227 156.803 31.1689 156.835 30.8472C156.835 29.8501 156.803 28.9172 156.449 27.9844C156.353 27.6949 156.256 27.4054 156.16 27.0838C155.902 26.0866 155.774 24.9608 156.16 23.9958C156.481 23.2238 157.092 22.5805 157.864 22.2267C158.186 22.098 158.572 22.0015 158.926 22.1302C159.473 22.3232 159.794 23.0308 159.698 23.5776C159.634 23.8671 159.408 24.1245 159.087 24.1888C158.604 24.2853 159.055 23.6098 158.604 23.6098C158.347 23.6098 158.122 23.835 158.122 24.1245C158.122 25.1538 159.183 25.2181 159.73 24.8C160.309 24.3818 160.566 23.7385 160.599 23.063C160.631 22.291 160.341 21.519 159.762 21.0043C158.669 20.0072 157.189 20.7148 156.353 21.6477C155.902 22.1623 155.548 22.7413 155.388 23.4168C155.195 24.221 155.162 24.993 155.259 25.7649C155.13 25.5398 155.002 25.3146 154.873 25.0894C154.68 24.7356 154.455 24.3818 154.23 24.0601C154.294 23.3846 154.648 19.5247 153.104 19.1709C151.689 18.8492 151.656 20.2967 152.364 21.519C152.428 21.6477 152.525 21.7763 152.621 21.9372C151.978 21.1973 151.27 20.4897 150.531 19.8785C149.919 19.3639 149.212 18.9135 148.601 18.431C148.311 18.2059 148.022 17.9485 147.796 17.659C146.992 16.7262 146.831 15.6326 147.153 14.4424C147.41 13.3809 148.375 12.7054 149.437 12.6089C150.209 12.5446 151.045 12.8984 151.399 13.7026C151.56 14.1208 151.56 15.0857 150.82 14.8284C150.691 14.7963 150.595 14.6676 150.563 14.5389C150.531 14.3781 150.659 14.1851 150.627 13.9921C150.627 13.7991 150.402 13.6383 150.209 13.6383C149.823 13.6383 149.63 14.0886 149.694 14.4103C149.855 15.2144 150.82 15.7612 151.849 15.1822C152.46 14.8284 152.525 13.9278 152.364 13.3166C151.592 10.3251 147.217 10.3573 145.995 12.8984C145.352 14.2494 145.802 15.8899 146.478 17.1444C147.121 18.3345 148.343 18.9779 149.437 19.7499C150.531 20.5218 151.496 21.4547 152.46 22.3875C153.393 23.2881 154.294 24.221 154.969 25.3468C155.066 25.5076 155.227 25.7328 155.323 25.9258C155.42 26.6013 155.613 27.2446 155.838 27.8879C156.095 28.6277 156.481 29.3032 156.578 30.1074C156.706 30.9437 156.642 31.8122 156.578 32.6807C156.546 33.0023 156.513 33.3562 156.481 33.6778C156.353 34.3212 156.224 34.9323 156.095 35.5435C155.967 36.1225 155.741 37.5056 155.581 38.5671C155.484 38.7601 155.355 38.9531 155.259 39.1461C155.098 39.4034 154.969 39.6929 154.841 39.9824C155.13 38.6958 155.13 37.4735 155.002 36.3155C154.583 32.5842 153.039 31.587 152.653 31.394C152.621 31.394 152.621 31.394 152.621 31.4262C154.423 33.0988 156.32 39.8538 151.27 45.9332C150.434 46.9625 149.566 48.024 148.729 49.0533C148.472 49.3106 148.215 49.568 147.989 49.8253C148.954 48.5386 150.016 47.1555 151.077 45.7723C155.741 39.6608 153.586 34.1603 153.586 34.1603C151.881 29.7857 147.7 28.1774 148.794 29.1102C156.899 36.1868 151.077 45.2577 146.22 51.8839M154.197 23.9958C154.133 23.8671 154.037 23.7706 153.972 23.642C153.747 23.3203 153.49 22.9986 153.265 22.677C153.168 22.5805 153.136 22.5162 153.104 22.4518C152.718 21.6798 152.653 20.3288 153.554 20.9078C154.133 21.326 154.197 23.3846 154.197 23.9958Z" fill="#F6CE7B"></path>
    <path d="M153.972 25.2828C154.455 25.7974 154.905 26.4407 155.323 27.2449C155.162 26.9232 155.098 26.5694 154.905 26.2477C154.101 24.8646 152.814 23.8353 151.656 22.7738C149.18 20.5222 146.445 18.0775 142.907 18.1097C141.46 18.1097 140.044 18.5278 138.79 19.2677C137.664 19.9432 136.731 20.8438 135.766 21.6801C132.936 24.1891 132.614 25.6366 132.292 26.2799C133.579 23.8674 135.831 21.262 138.758 21.1655C140.302 21.1011 141.749 21.648 143.164 22.1305C144.676 22.6451 146.188 23.0311 147.796 23.0311C149.598 23.0311 151.817 23.2563 153.651 25.0254L153.844 25.2184C153.94 25.2184 153.94 25.2506 153.972 25.2828ZM153.94 25.2828C153.49 25.3793 152.557 25.5401 152.107 25.5723C151.27 25.6044 150.144 25.0576 151.109 24.5108C151.753 24.1569 153.329 24.9289 153.844 25.2184L153.683 25.0254C152.75 24.4143 150.402 23.0311 149.437 24.1569C148.408 25.3471 149.566 25.9904 150.916 25.8618C151.785 25.7653 153.265 25.4436 153.94 25.2828Z" fill="#F6CE7B"></path>
    <path d="M138.919 11.0649C138.307 10.8076 138.758 9.93907 139.015 9.55307C139.465 8.90975 140.27 8.55592 141.009 8.42726C142.039 8.23426 143.164 8.45942 143.904 9.26358C144.097 9.48874 144.258 9.74607 144.387 10.0356C144.419 10.1321 144.451 10.2286 144.483 10.3251C144.708 11.2257 144.515 12.3515 143.647 12.834C143.261 13.027 142.811 13.0592 142.457 12.8662C142.167 12.7054 141.942 12.448 141.878 12.1264C141.814 11.8369 141.942 11.3866 142.328 11.4187C142.618 11.4509 142.585 11.7404 142.553 11.9334C142.489 12.1907 142.907 12.3194 143.132 12.1585C143.583 11.8047 143.583 11.2257 143.357 10.6789C143.068 10.0034 142.264 9.84257 141.62 9.87474C140.881 9.93907 140.43 10.2607 139.916 10.7432C139.691 10.9684 139.433 11.1292 139.176 11.1292C139.047 11.0971 138.983 11.0971 138.919 11.0649Z" fill="#F6CE7B"></path>
    <path d="M158.862 47.4131C159.215 47.0593 159.698 47.6061 159.859 47.8956C160.18 48.3781 160.18 49.0536 160.052 49.6005C159.891 50.3403 159.408 51.0801 158.669 51.3696C158.476 51.4339 158.25 51.4661 158.025 51.4661C157.961 51.4661 157.897 51.4661 157.8 51.4339C157.125 51.3374 156.417 50.8871 156.288 50.1473C156.256 49.8578 156.353 49.5361 156.578 49.311C156.771 49.1501 157.028 49.0536 157.253 49.118C157.478 49.1501 157.736 49.3753 157.607 49.6326C157.511 49.8256 157.318 49.7291 157.189 49.6326C157.028 49.5361 156.835 49.7935 156.867 49.9543C156.964 50.3724 157.382 50.5333 157.832 50.5333C158.379 50.5333 158.733 50.0186 158.862 49.5683C159.022 49.0215 158.926 48.6355 158.733 48.153C158.636 47.96 158.604 47.7348 158.701 47.5418C158.765 47.5096 158.797 47.4453 158.862 47.4131Z" fill="#E19543"></path>
    <path d="M163.526 41.4294C163.493 41.9119 162.464 41.6224 162.271 41.6224C161.531 41.5902 160.438 42.2336 160.084 42.4266C159.666 42.8447 159.119 43.1985 158.54 43.102C157.8 42.9734 157.704 42.1692 157.253 41.6867C157.768 42.2336 158.636 42.4909 159.344 42.2657C159.794 42.1371 160.18 41.7189 160.373 41.3329C160.534 40.9791 160.598 40.5931 160.47 40.2393C160.341 39.8854 160.019 39.5959 159.666 39.5316C159.28 39.4673 158.894 39.6924 158.765 40.0463C159.022 39.9176 159.344 39.9498 159.601 40.1428C160.116 40.5609 159.923 41.3972 159.28 41.5259C159.087 41.5581 158.926 41.5259 158.733 41.4616C158.315 41.3007 157.961 40.9147 157.897 40.4644C157.864 40.2393 157.864 40.0141 157.929 39.8211C158.057 39.4029 158.411 39.0491 158.894 38.9526C159.312 38.8561 159.794 38.9204 160.18 39.1456C161.242 39.7889 161.113 41.1077 160.47 42.0084C160.405 42.1049 160.309 42.2014 160.245 42.2979C160.791 41.8154 161.306 41.2686 161.917 40.9791C162.239 40.8182 162.593 40.7217 162.914 40.7861C163.043 40.8182 163.526 41.0756 163.526 41.4294Z" fill="#F6CE7B"></path>
    <path d="M160.116 45.1928C160.341 46.2865 161.853 46.2543 162.528 45.611C163.365 44.8068 162.947 43.5845 162.142 42.909C161.467 42.33 160.791 42.3622 159.537 43.0377C159.119 43.2628 160.052 43.102 160.18 43.0377C160.631 42.8447 161.21 42.8125 161.66 43.0055C162.11 43.1985 162.464 43.681 162.528 44.1635C162.593 44.646 162.271 45.1928 161.821 45.3858C161.628 45.4501 161.435 45.4823 161.242 45.418C161.049 45.3536 160.888 45.1606 160.888 44.9676C161.274 45.1285 161.756 44.8711 161.853 44.4852C161.949 44.0992 161.66 43.6488 161.242 43.5845C160.856 43.5523 160.502 43.8097 160.309 44.1313C160.116 44.4852 160.019 44.839 160.116 45.1928Z" fill="#F6CE7B"></path>
    <path d="M130.587 26.6008C130.587 26.6008 130.716 24.8316 126.277 21.1325C122.417 17.9159 123.479 12.6406 123.479 12.6406C123.479 12.6406 124.669 16.3076 127.306 18.334C129.751 20.1997 130.587 22.966 130.587 26.6008Z" fill="#F6CE7B"></path>
    <path d="M109.036 30.2999C109.604 30.2999 110.065 29.839 110.065 29.2705C110.065 28.7021 109.604 28.2412 109.036 28.2412C108.467 28.2412 108.007 28.7021 108.007 29.2705C108.007 29.839 108.467 30.2999 109.036 30.2999Z" fill="#E19543"></path>
    <path d="M110.677 59.604C111.03 60.4404 111.77 61.0837 112.671 61.2767C113.378 61.4375 114.086 61.341 114.762 61.1159C116.37 60.6012 117.785 59.5075 119.458 59.218C120.455 59.025 121.484 59.0894 122.482 59.3467C123.061 59.4754 123.64 59.7005 124.186 59.9579C124.411 60.0544 124.604 60.1509 124.83 60.2795C128.336 62.2417 130.008 66.8414 130.684 69.4147C130.555 69.1252 130.041 67.9994 129.365 66.7449C128.754 65.6513 128.014 64.429 127.242 63.6248C124.862 61.0515 120.487 59.3467 118.815 60.6012C116.627 62.2417 119.104 64.1716 119.812 64.0108C119.812 64.0108 117.013 60.6977 123.254 62.113C124.926 62.499 126.438 63.657 127.66 65.008C126.406 64.1395 124.186 62.9172 122.771 64.3968C121.581 65.6513 123.607 66.7449 124.347 66.2625C125.248 65.7156 124.186 64.2681 123.736 64.8793C123.414 65.3296 124.186 65.201 124.122 65.6513C124.025 66.359 122.385 65.2975 123.511 64.5576C124.186 64.1073 125.602 64.2681 126.953 65.0401C128.046 65.6835 128.979 66.5841 129.655 67.6456C130.201 68.5141 130.555 69.2217 130.652 69.4147C130.652 69.4469 130.652 69.4469 130.684 69.4469C130.684 68.0638 130.073 65.0401 129.172 63.078C127.21 58.7999 122.9 53.6211 120.68 56.0336C119.908 56.8699 120.455 58.2209 121.903 59.0572C120.97 58.7999 120.005 58.6069 119.04 58.4782C118.429 58.4139 117.785 58.3817 117.206 58.6391C116.434 58.9929 115.823 59.604 114.955 59.797C114.247 59.9579 113.475 59.8614 112.864 59.5075C112.349 59.2502 111.802 58.6712 111.931 58.0601C111.995 57.7706 112.22 57.5132 112.51 57.4489C112.799 57.3846 113.121 57.4489 113.346 57.6741C112.992 57.8349 112.864 58.3496 113.089 58.6712C113.314 58.9929 113.797 59.0894 114.15 58.9285C114.504 58.7677 114.762 58.3817 114.826 57.9957C114.955 57.3524 114.697 56.6769 114.183 56.2588C113.668 55.8406 112.96 55.7119 112.349 55.8728C111.706 56.0336 111.159 56.4839 110.837 57.0307C110.387 57.7706 110.323 58.7677 110.677 59.604Z" fill="#E19543"></path>
    <path d="M120.23 58.4458C120.23 58.4458 119.136 57.6738 118.943 57.5773C118.654 57.4164 117.914 57.2556 117.592 57.6094C117.303 57.9311 117.785 57.8346 118.493 57.8668C119.201 57.8989 120.23 58.4458 120.23 58.4458Z" fill="#E19543"></path>
    <path d="M105.53 41.0759C105.401 41.3975 106.527 41.6548 106.752 41.7513C107.653 42.1052 108.714 43.231 108.779 43.2953C108.328 42.6842 107.974 42.0087 107.395 41.494C107.138 41.2689 106.784 41.0437 106.463 40.9472C106.237 40.8829 105.626 40.8185 105.53 41.0759Z" fill="#F6CE7B"></path>
    <path d="M104.661 25.7006C105.047 26.7621 104.887 28.5634 104.887 28.5634C104.951 28.2417 105.015 27.92 105.08 27.5984C105.369 27.0837 105.691 26.5691 105.852 25.9901C105.948 25.6684 106.012 25.2824 105.948 24.9286C105.916 24.7356 105.755 24.1566 105.498 24.1566C105.176 24.1566 105.401 25.2824 105.401 25.5076C105.433 25.9579 105.305 26.5047 105.208 26.9872C105.24 26.6977 105.273 26.4082 105.273 26.0866C105.273 25.6684 105.208 25.2502 105.015 24.8642C104.919 24.6391 104.533 24.0923 104.275 24.1566C103.986 24.2853 104.597 25.4754 104.661 25.7006Z" fill="#F6CE7B"></path>
    <path d="M120.616 58.4462C118.171 55.1331 111.48 49.1823 106.849 51.8843C104.629 53.171 106.977 56.2268 108.553 54.8114C108.071 54.8114 107.299 54.9401 107.235 53.8143C107.17 52.399 110.419 51.3053 114.761 53.8465C119.072 56.3876 120.616 58.4462 120.616 58.4462Z" fill="#E19543"></path>
    <path d="M116.113 51.8196C111.223 45.1612 105.433 36.0903 113.539 29.0459C114.633 28.0809 110.451 29.7214 108.746 34.096C108.746 34.096 106.559 39.6286 111.255 45.708C112.317 47.0912 113.346 48.4743 114.343 49.761C114.118 49.5036 113.861 49.2463 113.604 48.989C112.767 47.9596 111.899 46.8982 111.062 45.8688C106.012 39.7894 107.942 33.0345 109.711 31.3619C109.711 31.3619 109.711 31.3297 109.679 31.3297C109.261 31.5227 107.717 32.5198 107.331 36.2511C107.202 37.4091 107.235 38.6314 107.492 39.9181C107.363 39.6286 107.235 39.3713 107.074 39.0818C106.977 38.8888 106.881 38.6958 106.752 38.5028C106.591 37.4091 106.366 36.026 106.237 35.4791C106.077 34.868 105.98 34.2568 105.851 33.6135C105.819 33.2918 105.787 32.938 105.755 32.6163C105.723 31.7479 105.658 30.9115 105.755 30.043C105.851 29.2389 106.237 28.5634 106.495 27.8236C106.72 27.2124 106.913 26.5369 107.009 25.8614C107.138 25.6684 107.267 25.4433 107.363 25.2824C108.039 24.1566 108.939 23.2238 109.872 22.3231C110.837 21.3903 111.802 20.4575 112.896 19.6855C113.957 18.9457 115.18 18.3024 115.855 17.08C116.531 15.8256 116.981 14.1851 116.338 12.8341C115.148 10.293 110.741 10.293 109.969 13.2523C109.808 13.8634 109.872 14.7641 110.483 15.1179C111.513 15.7291 112.478 15.1822 112.639 14.3459C112.703 14.0243 112.51 13.5739 112.124 13.5739C111.931 13.5739 111.738 13.7348 111.706 13.9278C111.706 14.1208 111.802 14.2816 111.77 14.4746C111.738 14.6032 111.641 14.6997 111.513 14.7641C110.805 15.0214 110.773 14.0564 110.934 13.6383C111.255 12.8341 112.092 12.4803 112.896 12.5446C113.957 12.6089 114.922 13.2844 115.18 14.3781C115.469 15.5682 115.308 16.6619 114.536 17.5947C114.279 17.8842 114.022 18.1415 113.732 18.3667C113.089 18.8814 112.413 19.2995 111.802 19.8142C111.062 20.4575 110.355 21.133 109.711 21.8728C109.808 21.712 109.904 21.5833 109.969 21.4547C110.644 20.2323 110.644 18.7849 109.229 19.1065C107.717 19.4604 108.039 23.3203 108.103 23.9958C107.878 24.3496 107.653 24.6713 107.46 25.0251C107.331 25.2503 107.202 25.4433 107.074 25.7006C107.17 24.9286 107.17 24.1566 106.945 23.4168C106.752 22.7735 106.43 22.1623 105.98 21.6477C105.144 20.7148 103.632 20.0072 102.571 21.0043C102.024 21.519 101.734 22.291 101.734 23.063C101.766 23.7385 102.024 24.3818 102.603 24.7999C103.182 25.2181 104.243 25.1538 104.211 24.1245C104.211 23.8671 103.986 23.642 103.728 23.6098C103.246 23.6098 103.729 24.2853 103.246 24.1888C102.957 24.1245 102.699 23.8993 102.635 23.5776C102.538 23.0308 102.828 22.3231 103.407 22.1301C103.761 22.0015 104.147 22.098 104.468 22.2266C105.24 22.5483 105.851 23.2238 106.173 23.9958C106.559 24.9929 106.43 26.0866 106.173 27.0837C106.109 27.3732 105.98 27.6949 105.884 27.9844C105.53 28.9172 105.498 29.8822 105.498 30.8472C105.498 31.201 105.498 31.5549 105.53 31.8765C105.498 31.7157 105.433 31.587 105.401 31.4262C105.305 30.6864 105.208 29.9144 104.919 29.1424C104.726 28.6277 104.468 28.0809 104.114 27.6306C103.921 27.3732 103.246 26.6978 102.989 26.8586C102.635 27.0516 103.825 28.4669 104.018 28.7564C104.179 29.0137 104.34 29.3032 104.5 29.6249C104.468 29.5606 104.404 29.4962 104.372 29.4641C102.731 27.3089 98.9036 27.7592 98.8392 30.8472C98.8071 31.6835 99.2574 32.552 100.222 32.6163C100.641 32.6485 101.123 32.4877 101.477 32.2625C101.477 32.2625 100.158 32.166 100.029 31.2332C99.9007 30.3004 101.348 28.4669 103.728 30.7829C105.369 32.3912 106.334 36.1868 106.752 38.3098C106.43 37.7951 106.077 37.2804 105.723 36.798C105.594 36.2511 105.465 35.7043 105.24 35.1896C105.047 34.7393 104.79 34.2568 104.436 33.8708C104.243 33.6457 103.6 33.0988 103.375 33.2275C103.085 33.4205 104.243 34.6428 104.436 34.868C104.693 35.2218 104.951 35.64 105.176 36.0903C105.079 35.9938 105.015 35.8651 104.919 35.7686C104.05 34.7393 102.989 33.9995 101.638 33.71C100.962 33.5813 100.255 33.6135 99.6112 33.903C98.7427 34.3212 98.0029 35.254 97.9064 36.219C97.8421 36.798 98.1637 37.3769 98.5819 37.7629C99.0644 38.1489 99.9329 38.2776 100.448 37.8916C100.448 37.8594 100.448 37.8594 100.415 37.8594C99.9972 37.8273 99.4826 37.6021 99.1931 37.3126C98.5819 36.7015 99.1287 35.8008 99.7077 35.447C102.185 33.8387 104.629 37.0231 105.787 38.6636C106.27 39.3713 106.784 40.0467 107.299 40.7222C107.556 41.0439 107.878 41.3977 108.135 41.7516C108.779 43.3599 109.872 45.129 111.577 47.059C110.419 46.1262 109.229 45.3863 108.167 45.1933C104.886 44.5822 104.565 46.7373 104.758 47.5093C105.079 48.796 106.688 49.4715 107.556 48.5065C108.489 47.445 107.299 46.5122 107.299 46.5122C107.299 46.5122 107.556 45.7723 109.84 46.7373C112.478 47.8631 116.016 52.0126 118.268 54.9397C118.268 54.9397 120.23 57.5774 120.262 57.6417M108.746 20.94C109.615 20.361 109.583 21.6798 109.197 22.484C109.165 22.5161 109.132 22.5805 109.068 22.677C108.811 22.9986 108.586 23.3203 108.36 23.642C108.264 23.7706 108.2 23.8671 108.135 23.9958C108.103 23.3846 108.167 21.326 108.746 20.94Z" fill="#F6CE7B"></path>
    <path d="M108.36 25.2824C109.036 25.4433 110.515 25.7649 111.384 25.8614C112.735 25.9579 113.925 25.3468 112.864 24.1566C111.899 23.0308 109.55 24.414 108.618 25.0251L108.425 25.2181C108.939 24.9286 110.58 24.1245 111.191 24.5105C112.156 25.0573 111.03 25.6041 110.194 25.5719C109.743 25.5398 108.811 25.3468 108.36 25.2824ZM108.328 25.2824C108.36 25.2503 108.36 25.2181 108.392 25.2181L108.585 25.0251C110.419 23.2238 112.638 23.0308 114.44 23.0308C116.048 23.0308 117.56 22.677 119.072 22.1302C120.487 21.6477 121.967 21.1008 123.478 21.1652C126.406 21.2617 128.657 23.8671 129.944 26.2796C129.59 25.6363 129.301 24.221 126.47 21.6798C125.505 20.8113 124.572 19.9107 123.446 19.2674C122.192 18.5275 120.776 18.1094 119.329 18.1094C115.791 18.1094 113.024 20.554 110.58 22.7735C109.39 23.835 108.135 24.8643 107.331 26.2474C107.138 26.5691 107.074 26.9229 106.913 27.2446C107.395 26.4404 107.846 25.7971 108.328 25.2824Z" fill="#F6CE7B"></path>
    <path d="M123.382 11.0649C123.993 10.8076 123.543 9.93907 123.286 9.55307C122.835 8.90975 122.031 8.55592 121.291 8.42726C120.262 8.23426 119.136 8.45942 118.396 9.26358C118.203 9.48874 118.043 9.74607 117.914 10.0356C117.882 10.1321 117.85 10.2286 117.817 10.3251C117.592 11.2257 117.785 12.3515 118.654 12.834C119.008 13.027 119.458 13.0592 119.812 12.8662C120.101 12.7054 120.326 12.448 120.391 12.1264C120.455 11.8369 120.326 11.3866 119.94 11.4187C119.651 11.4509 119.683 11.7404 119.715 11.9334C119.78 12.1907 119.361 12.3194 119.136 12.1585C118.686 11.8047 118.686 11.2257 118.911 10.6789C119.201 10.0034 120.005 9.84257 120.648 9.87474C121.388 9.93907 121.838 10.2607 122.353 10.7432C122.546 10.9362 122.803 11.1292 123.093 11.0971C123.253 11.0971 123.318 11.0971 123.382 11.0649Z" fill="#F6CE7B"></path>
    <path d="M103.439 47.4131C103.085 47.0593 102.603 47.6061 102.442 47.8956C102.12 48.3781 102.12 49.0536 102.249 49.6005C102.41 50.3403 102.892 51.0801 103.632 51.3696C103.857 51.4339 104.082 51.4661 104.307 51.4661C104.372 51.4661 104.436 51.4661 104.533 51.4339C105.208 51.3374 105.916 50.8871 106.044 50.1473C106.077 49.8578 105.98 49.5361 105.755 49.311C105.562 49.1501 105.305 49.0536 105.079 49.118C104.854 49.1501 104.597 49.3753 104.726 49.6326C104.822 49.8256 105.015 49.7291 105.144 49.6326C105.305 49.5361 105.498 49.7935 105.465 49.9543C105.369 50.3724 104.951 50.5333 104.5 50.5333C103.954 50.5333 103.6 50.0186 103.471 49.5683C103.31 49.0215 103.407 48.6355 103.6 48.153C103.696 47.96 103.728 47.7348 103.632 47.5418C103.535 47.5096 103.503 47.4453 103.439 47.4131Z" fill="#E19543"></path>
    <path d="M98.7749 41.4294C98.8071 41.9119 99.8364 41.6224 100.029 41.6224C100.769 41.5902 101.863 42.2336 102.217 42.4266C102.635 42.8447 103.182 43.1985 103.761 43.102C104.5 42.9734 104.597 42.1692 105.047 41.6867C104.533 42.2336 103.664 42.4909 102.957 42.2657C102.506 42.1371 102.12 41.7189 101.927 41.3329C101.766 40.9791 101.702 40.5931 101.831 40.2393C101.959 39.8854 102.281 39.5959 102.635 39.5316C103.021 39.4673 103.407 39.6924 103.536 40.0463C103.278 39.9176 102.957 39.9498 102.699 40.1428C102.185 40.5609 102.378 41.3972 103.021 41.5259C103.214 41.5581 103.375 41.5259 103.568 41.4616C103.986 41.3007 104.34 40.9147 104.404 40.4644C104.436 40.2393 104.436 40.0141 104.372 39.8211C104.243 39.4029 103.889 39.0491 103.407 38.9526C102.989 38.8561 102.506 38.9204 102.12 39.1456C101.059 39.7889 101.187 41.1077 101.831 42.0084C101.895 42.1049 101.992 42.2014 102.056 42.2979C101.509 41.8154 100.994 41.2686 100.383 40.9791C100.062 40.8182 99.7077 40.7217 99.3861 40.7861C99.2574 40.8182 98.7749 41.0756 98.7749 41.4294Z" fill="#F6CE7B"></path>
    <path d="M102.185 45.1928C101.959 46.2865 100.448 46.2543 99.7721 45.611C98.9358 44.8068 99.354 43.5845 100.158 42.909C100.834 42.33 101.509 42.3622 102.764 43.0377C103.182 43.2628 102.249 43.102 102.12 43.0377C101.67 42.8447 101.091 42.8125 100.641 43.0055C100.19 43.1985 99.8365 43.681 99.7721 44.1635C99.7078 44.646 100.029 45.1928 100.48 45.3858C100.673 45.4501 100.866 45.4823 101.059 45.418C101.252 45.3536 101.413 45.1606 101.413 44.9676C101.027 45.1285 100.544 44.8711 100.448 44.4852C100.351 44.0992 100.641 43.6488 101.059 43.5845C101.445 43.5523 101.799 43.8097 101.992 44.1313C102.185 44.4852 102.281 44.839 102.185 45.1928Z" fill="#F6CE7B"></path>
    <path d="M0.989505 100.037C1.63283 99.9082 2.05099 99.7473 2.27615 99.49C2.50132 99.2327 2.59782 98.8467 2.59782 98.2677L2.62998 89.615C2.62998 89.1647 2.56565 88.8752 2.46915 88.7143C2.37265 88.5535 2.17966 88.4892 1.85799 88.4892L1.15034 88.5213L1.11817 88.4248L1.24683 87.5242C1.43983 87.5242 1.5685 87.5242 1.665 87.5563C2.50132 87.5885 3.11248 87.5885 3.53064 87.5885C4.10963 87.5885 4.84945 87.5242 5.71794 87.3955L5.62144 88.3283C5.20328 88.3927 4.91379 88.4892 4.75296 88.5857C4.59212 88.6822 4.46346 88.843 4.39913 89.0682C4.33479 89.2933 4.30263 89.6793 4.27046 90.194L4.1418 93.5393L7.61575 93.6036C8.48424 93.6036 9.48139 93.5393 10.6715 93.4106L10.7037 89.6793C10.7037 89.229 10.6394 88.9395 10.5429 88.7787C10.4464 88.6178 10.2212 88.5535 9.93172 88.5535C9.73872 88.5535 9.51356 88.5535 9.22406 88.5857L9.1919 88.4892L9.32056 87.5885C9.48139 87.5885 9.73872 87.6207 10.1247 87.6207C10.5107 87.6207 10.9289 87.6528 11.3149 87.6528C11.9904 87.6528 12.7945 87.5885 13.7917 87.4598L13.7273 88.3927C13.2127 88.457 12.891 88.5857 12.698 88.7465C12.5372 88.9073 12.4407 89.1968 12.4085 89.5828C12.312 91.1268 12.2477 92.7994 12.2155 94.5686C12.1512 96.3377 12.119 97.6887 12.119 98.5894C12.119 99.104 12.1834 99.4257 12.312 99.6187C12.4407 99.7795 12.6659 99.876 13.0197 99.876C13.1805 99.876 13.5022 99.8438 13.9525 99.8117L13.9847 99.9082L13.7917 100.841C13.5987 100.841 13.4378 100.841 13.3413 100.809C12.4407 100.777 11.733 100.777 11.2505 100.777L8.87023 100.809L9.06323 99.876C9.51356 99.876 9.83522 99.8117 10.0604 99.683C10.2855 99.5865 10.4142 99.3613 10.5107 99.0719C10.6072 98.7824 10.6394 98.2999 10.6394 97.6887V94.5686L7.51925 94.5364C7.16542 94.5364 6.68293 94.5686 6.07177 94.6007C5.46061 94.6329 4.78512 94.6972 4.10963 94.7616L4.01313 98.4607C4.01313 99.0075 4.07746 99.3935 4.20613 99.5865C4.33479 99.7795 4.55996 99.876 4.91379 99.876C5.07462 99.876 5.39628 99.8438 5.84661 99.8117L5.87877 99.9082L5.68578 100.841C5.55711 100.841 5.33195 100.809 4.97812 100.809C4.62429 100.809 4.30263 100.777 3.91663 100.777C3.27331 100.777 2.59782 100.809 1.89016 100.873C1.24683 100.873 0.86084 100.937 0.86084 101.002L0.989505 100.037Z" fill="#E19543"></path>
    <path d="M23.8918 100.198C23.0234 99.6511 22.3479 98.9112 21.8654 97.9463C21.3829 96.9813 21.1577 95.8876 21.1577 94.6331C21.1577 93.2821 21.4472 92.0598 22.0584 90.9662C22.6695 89.8725 23.4737 89.004 24.503 88.3607C25.5323 87.7174 26.6903 87.3957 27.9126 87.3957C29.0384 87.3957 30.0678 87.6531 30.9363 88.1999C31.8047 88.7467 32.5124 89.4865 32.9949 90.4515C33.4774 91.4165 33.7347 92.5102 33.7347 93.7325C33.7347 95.0835 33.4452 96.3058 32.8341 97.3994C32.2229 98.5252 31.3866 99.3937 30.3573 100.037C29.3279 100.68 28.1378 101.002 26.8833 101.002C25.7253 101.002 24.7282 100.713 23.8918 100.198ZM29.7783 99.2651C30.4538 98.8147 30.9684 98.1714 31.3544 97.3673C31.7404 96.5631 31.9012 95.6303 31.9012 94.601C31.9012 93.443 31.7082 92.4137 31.2901 91.513C30.9041 90.6123 30.3573 89.9047 29.6496 89.39C28.9419 88.8754 28.1378 88.618 27.205 88.618C26.3686 88.618 25.6288 88.8432 24.9855 89.2935C24.3422 89.7439 23.8275 90.3872 23.4737 91.1913C23.1199 91.9955 22.9269 92.9283 22.9269 93.9576C22.9269 95.1156 23.1199 96.1449 23.5059 97.0456C23.8918 97.9462 24.4387 98.6539 25.1142 99.1686C25.7897 99.6832 26.5938 99.9406 27.4945 99.9406C28.3308 99.9406 29.1028 99.7154 29.7783 99.2651ZM24.6638 86.0769L24.3743 85.6266C24.9212 85.2084 25.5002 84.7581 26.0792 84.2756C26.6581 83.7931 27.0441 83.5036 27.205 83.3428H27.4945C27.6553 83.5036 28.0413 83.7931 28.6203 84.2756C29.1993 84.7581 29.7783 85.2084 30.3251 85.6266L30.0356 86.0769L29.8426 86.1091C28.9098 85.5622 28.0735 85.1119 27.3336 84.7581C26.626 85.0798 25.7897 85.5301 24.8247 86.1091L24.6638 86.0769Z" fill="#E19543"></path>
    <path d="M42.1944 99.9404C42.8699 99.8761 43.3524 99.8117 43.6097 99.6831C43.867 99.5544 44.0279 99.3614 44.1244 99.0398C44.2209 98.7181 44.253 98.1713 44.253 97.3993V88.4571C43.095 88.4892 42.2909 88.5536 41.8727 88.65C41.4546 88.7465 41.1651 88.9395 41.0042 89.2612C40.8434 89.5829 40.7147 90.1619 40.5861 91.0625L39.6211 91.159C39.7819 89.8724 39.8784 88.6822 39.9428 87.5886L40.1358 87.4277L41.8406 87.6529H48.2095L49.9465 87.4277L50.1395 87.5886C50.1716 88.7144 50.2681 89.8724 50.4611 91.0625L49.4961 91.159C49.3353 90.2584 49.2066 89.6472 49.0458 89.3255C48.885 89.0039 48.6276 88.8109 48.2416 88.7144C47.8556 88.6179 47.1158 88.5536 46.0222 88.4892C45.9257 89.3255 45.8613 90.773 45.797 92.8638C45.7327 94.9546 45.7005 96.8203 45.7005 98.4929C45.7005 99.0076 45.797 99.3614 45.9578 99.5544C46.1508 99.7796 46.4403 99.8761 46.8585 99.8761C47.2767 99.8761 47.6627 99.8439 47.9843 99.8117L48.0486 99.9082L47.8557 100.841L47.1802 100.809L44.832 100.777C44.0922 100.777 43.1272 100.809 42.0014 100.873L42.1944 99.9404Z" fill="#E19543"></path>
    <path d="M66.7696 97.3027C66.5444 98.4285 66.3514 99.5543 66.2227 100.777L66.1262 100.905C63.2635 100.809 61.1726 100.777 59.886 100.777C58.8567 100.777 57.9238 100.841 57.0232 100.97L57.1519 100.037C57.763 99.9403 58.1812 99.7795 58.4063 99.5543C58.6315 99.3291 58.7602 98.911 58.7602 98.2998V89.6471C58.7602 89.1968 58.6958 88.9073 58.5993 88.7464C58.5028 88.5856 58.2777 88.5213 57.9882 88.5213L57.2805 88.5534L57.2484 88.4569L57.377 87.5563C58.7923 87.5884 59.7252 87.6206 60.2398 87.6206C61.8803 87.6206 63.1348 87.5884 64.0354 87.5563C64.9361 87.5241 65.7402 87.4598 66.4157 87.3633L66.4801 87.4919C66.2227 88.5856 66.0941 89.7114 65.9976 90.9016L65.0004 90.9981L65.0326 90.0974C65.0326 89.6149 64.9683 89.2933 64.8396 89.1003C64.7109 88.9073 64.4536 88.7786 64.0354 88.7464C63.6173 88.6821 62.9096 88.6499 61.8803 88.6499C61.3978 88.6499 61.0761 88.6499 60.8831 88.6821C60.7223 88.7143 60.5936 88.7786 60.5293 88.8751C60.465 88.9716 60.4328 89.1646 60.4328 89.4541L60.272 93.4427L62.395 93.4749C62.9418 93.4749 63.7781 93.4105 64.9039 93.2497L65.0004 93.3462L64.7109 94.5685C63.1991 94.5364 62.2341 94.5042 61.816 94.5042C61.3656 94.5042 60.851 94.5364 60.2398 94.6329L60.1433 98.5571C60.1433 98.9431 60.1755 99.2326 60.2398 99.3935C60.3042 99.5543 60.4328 99.6508 60.658 99.7151C60.8831 99.7795 61.237 99.8116 61.7516 99.8116C62.9096 99.8116 63.7138 99.7473 64.1963 99.6508C64.6788 99.5543 65.0326 99.3291 65.2256 98.9753C65.4186 98.6536 65.5794 98.0746 65.7081 97.3027L66.6087 97.2062L66.7696 97.3027Z" fill="#E19543"></path>
    <path d="M74.6502 100.005C75.197 99.9082 75.5508 99.7474 75.7438 99.5222C75.9368 99.2971 76.0333 98.8789 76.0333 98.2678L76.0655 89.615C76.0655 89.1647 76.0011 88.8752 75.9046 88.7144C75.8081 88.5536 75.6151 88.4892 75.2935 88.4892C75.1648 88.4892 75.004 88.4892 74.8753 88.5214C74.7466 88.5214 74.6502 88.5536 74.5858 88.5536L74.5537 88.4571L74.6823 87.5564C74.8432 87.5564 75.1648 87.5886 75.6151 87.5886C76.0655 87.5886 76.5158 87.6207 76.9983 87.6207C77.3843 87.6207 77.8024 87.5886 78.2528 87.5564C78.7353 87.4921 79.0248 87.4599 79.1856 87.4277L79.0891 88.3606C78.6388 88.4249 78.3171 88.4892 78.1563 88.6179C77.9954 88.7465 77.8668 88.8752 77.8346 89.036C77.8024 89.1969 77.7703 89.615 77.7059 90.2584C77.6094 91.4163 77.5773 92.7673 77.5129 94.247C77.4808 95.7266 77.4486 97.0454 77.4486 98.2034C77.4486 98.6859 77.4808 99.0398 77.5773 99.2649C77.6738 99.4901 77.8024 99.6187 78.0276 99.6831C78.2528 99.7474 78.6388 99.7796 79.1856 99.7796C80.0219 99.7796 80.6331 99.7152 81.0191 99.5866C81.4051 99.4579 81.6946 99.1684 81.8876 98.7824C82.0806 98.3964 82.2736 97.7531 82.4344 96.8846L83.335 96.7881L83.3994 96.8846C83.3672 97.1098 83.2707 97.5923 83.142 98.3643C83.0134 99.1362 82.8847 99.9404 82.7882 100.777L82.6917 100.905C82.3057 100.873 81.4694 100.841 80.2471 100.777C78.9926 100.745 77.9633 100.712 77.1591 100.712C76.5158 100.712 75.9368 100.745 75.39 100.809C74.8753 100.873 74.5215 100.905 74.3928 100.938L74.6502 100.005Z" fill="#E19543"></path>
    <path d="M103.117 100.841C102.442 100.777 101.895 100.745 101.477 100.745C101.059 100.745 100.576 100.777 100.094 100.841C99.6112 100.906 99.2573 100.97 99.1287 100.97L99.2573 100.037C99.9007 99.9084 100.319 99.7476 100.544 99.4903C100.769 99.2329 100.866 98.8469 100.866 98.2679L100.898 89.6152C100.898 89.1649 100.833 88.8754 100.737 88.7146C100.64 88.5537 100.415 88.4894 100.126 88.4894C99.9972 88.4894 99.8685 88.4894 99.7077 88.5216C99.579 88.5216 99.4825 88.5537 99.4182 88.5537L99.386 88.4572L99.5147 87.5566C99.6755 87.5566 99.965 87.5887 100.383 87.5887C100.801 87.5887 101.252 87.6209 101.67 87.6209C102.249 87.6209 102.86 87.6209 103.503 87.5887C104.147 87.5566 104.565 87.5566 104.79 87.5244C106.109 87.5244 107.267 87.7817 108.296 88.2964C109.325 88.8111 110.13 89.5187 110.709 90.4515C111.288 91.3844 111.577 92.4459 111.577 93.6682C111.577 95.0192 111.255 96.2415 110.644 97.3673C110.001 98.4609 109.165 99.3616 108.071 100.005C106.977 100.648 105.787 100.97 104.468 100.97C104.211 100.97 103.793 100.906 103.117 100.841ZM102.796 88.6502C102.699 88.7146 102.635 88.8432 102.635 89.0041C102.442 94.2793 102.313 97.303 102.313 98.0428C102.313 98.5574 102.377 98.9434 102.538 99.2008C102.667 99.4581 102.924 99.6511 103.31 99.7476C103.696 99.8441 104.211 99.9084 104.919 99.9084C106.398 99.9084 107.556 99.3938 108.425 98.3644C109.261 97.3351 109.711 95.952 109.711 94.1507C109.711 92.3494 109.165 90.934 108.071 89.969C106.977 89.0041 105.433 88.5216 103.407 88.5216C103.085 88.5537 102.892 88.5859 102.796 88.6502Z" fill="#E19543"></path>
    <path d="M128.464 97.3027C128.239 98.4285 128.046 99.5543 127.918 100.777L127.821 100.905C124.958 100.809 122.867 100.777 121.581 100.777C120.584 100.777 119.619 100.841 118.718 100.97L118.847 100.037C119.458 99.9403 119.876 99.7795 120.101 99.5543C120.326 99.3291 120.455 98.911 120.455 98.2998L120.487 89.6471C120.487 89.1968 120.423 88.9073 120.326 88.7464C120.23 88.5856 120.005 88.5213 119.715 88.5213L119.008 88.5534L118.975 88.4569L119.104 87.5563C120.519 87.5884 121.452 87.6206 121.967 87.6206C123.607 87.6206 124.862 87.5884 125.762 87.5563C126.663 87.5241 127.467 87.4598 128.143 87.3633L128.207 87.4919C127.95 88.5856 127.789 89.7114 127.725 90.9016L126.727 90.9981L126.76 90.0974C126.76 89.6149 126.695 89.2933 126.567 89.1003C126.438 88.9073 126.181 88.7786 125.762 88.7464C125.344 88.6821 124.637 88.6499 123.607 88.6499C123.125 88.6499 122.803 88.6499 122.61 88.6821C122.417 88.7143 122.321 88.7786 122.256 88.8751C122.192 88.9716 122.16 89.1646 122.16 89.4541L121.999 93.4427L124.122 93.4749C124.669 93.4749 125.505 93.4105 126.631 93.2497L126.727 93.3462L126.438 94.5685C124.926 94.5364 123.961 94.5042 123.575 94.5042C123.125 94.5042 122.61 94.5364 121.999 94.6329L121.902 98.5571C121.902 98.9431 121.935 99.2326 121.999 99.3935C122.063 99.5543 122.192 99.6508 122.417 99.7151C122.642 99.7795 122.996 99.8116 123.511 99.8116C124.669 99.8116 125.473 99.7473 125.955 99.6508C126.438 99.5543 126.792 99.3291 126.985 98.9753C127.178 98.6536 127.339 98.0746 127.467 97.3027L128.368 97.2062L128.464 97.3027Z" fill="#E19543"></path>
    <path d="M145.544 100.005C146.091 99.9083 146.445 99.7475 146.638 99.5223C146.831 99.2971 146.928 98.879 146.928 98.2678L146.96 89.6151C146.96 89.1648 146.895 88.8753 146.799 88.7144C146.702 88.5536 146.509 88.4893 146.188 88.4893C146.059 88.4893 145.898 88.4893 145.77 88.5214C145.641 88.5214 145.544 88.5536 145.48 88.5536L145.448 88.4571L145.609 87.5886C145.77 87.5886 146.091 87.6208 146.542 87.6208C146.992 87.6208 147.442 87.653 147.925 87.653C148.311 87.653 148.729 87.6208 149.179 87.5886C149.662 87.5243 149.951 87.4921 150.112 87.46L150.016 88.3928C149.565 88.4571 149.244 88.5214 149.083 88.6501C148.922 88.7788 148.793 88.9074 148.761 89.0683C148.729 89.2291 148.697 89.6473 148.632 90.2906C148.536 91.4486 148.504 92.7996 148.439 94.2792C148.407 95.7588 148.375 97.0777 148.375 98.2357C148.375 98.7181 148.407 99.072 148.504 99.2971C148.6 99.5223 148.729 99.651 148.954 99.7153C149.179 99.7796 149.565 99.8118 150.112 99.8118C150.948 99.8118 151.56 99.7475 151.946 99.6188C152.332 99.4901 152.621 99.2006 152.814 98.8146C153.007 98.4286 153.2 97.7853 153.361 96.9168L154.262 96.8203L154.326 96.9168C154.294 97.142 154.197 97.6245 154.069 98.3965C153.94 99.1685 153.811 99.9726 153.715 100.809L153.618 100.938C153.232 100.905 152.396 100.873 151.174 100.809C149.919 100.777 148.89 100.745 148.086 100.745C147.442 100.745 146.863 100.777 146.316 100.841C145.802 100.905 145.448 100.938 145.319 100.97L145.544 100.005Z" fill="#E19543"></path>
    <path d="M160.148 94.6651L160.116 94.4721C160.437 94.1826 160.695 93.8288 160.888 93.4749C161.081 93.1211 161.177 92.7673 161.177 92.4456C161.177 92.1561 161.081 91.8666 160.888 91.6093C160.695 91.352 160.438 91.1911 160.084 91.0625L160.052 90.773C160.502 90.2583 160.92 90.001 161.338 90.001C161.66 90.001 161.949 90.1618 162.174 90.5156C162.4 90.8695 162.528 91.2555 162.528 91.7058C162.528 92.1883 162.367 92.7029 162.014 93.2498C161.66 93.7966 161.177 94.3434 160.566 94.8581L160.148 94.6651Z" fill="#E19543"></path>
    <path d="M175.137 100.809L175.234 100.005C175.942 99.9403 176.424 99.876 176.681 99.7473C176.939 99.6186 177.067 99.4578 177.067 99.2005C177.067 98.9431 177.003 98.5893 176.874 98.2033L176.199 95.9517C175.877 95.9517 175.17 95.9195 174.076 95.9195C173.401 95.9195 172.661 95.9838 171.824 96.0803L171.052 98.2355C170.924 98.6215 170.859 98.8788 170.859 99.0396C170.859 99.3291 170.956 99.5543 171.149 99.683C171.342 99.8116 171.664 99.8759 172.082 99.8759H173.24L173.272 99.9725L173.143 100.873C172.982 100.873 172.596 100.841 172.017 100.777C171.438 100.712 170.859 100.712 170.28 100.712C169.766 100.712 169.315 100.712 168.865 100.744C168.447 100.744 168.157 100.777 167.997 100.777L168.157 99.8116C168.543 99.7795 168.833 99.6508 169.09 99.4256C169.315 99.2005 169.541 98.8145 169.766 98.2355L173.787 87.7171L175.073 87.3633H175.234C175.33 87.6849 175.523 88.4569 175.845 89.6471C176.199 90.8372 176.585 92.2526 177.067 93.893C177.55 95.5335 178.032 97.0132 178.483 98.3963C178.644 98.911 178.869 99.2648 179.158 99.4578C179.416 99.6508 179.866 99.7795 180.477 99.8438L180.509 99.9403L180.381 100.777C180.22 100.777 179.93 100.777 179.48 100.744C179.062 100.712 178.611 100.712 178.193 100.712C177.518 100.712 176.907 100.744 176.295 100.809C175.684 100.873 175.298 100.905 175.137 100.937V100.809ZM173.98 95.1475C174.462 95.1475 175.105 95.1153 175.877 95.051L174.269 89.6471H174.14L172.178 95.1475H173.98Z" fill="#E19543"></path>
    <path d="M189.741 90.0657H189.644C189.548 90.9663 189.419 92.6711 189.226 95.1479C189.033 97.6247 188.905 98.9757 188.905 99.2009C188.905 99.619 189.13 99.8442 189.548 99.8442L190.384 99.812L190.416 99.9085L190.223 100.841C190.063 100.841 189.805 100.809 189.419 100.777C189.033 100.745 188.647 100.745 188.229 100.745C187.875 100.745 187.521 100.777 187.168 100.809C186.814 100.841 186.556 100.874 186.46 100.906L186.556 99.9729C187.007 99.9085 187.296 99.7799 187.489 99.5547C187.682 99.3296 187.811 98.9436 187.875 98.3967C188.004 97.1101 188.197 95.3731 188.422 93.1858C188.647 90.9985 188.776 89.7762 188.776 89.5188C188.776 89.165 188.647 88.9077 188.358 88.7147C188.068 88.5217 187.618 88.4252 187.007 88.393L186.942 88.2965L187.103 87.5889C187.264 87.5889 187.618 87.621 188.165 87.6532C188.679 87.6854 189.098 87.6854 189.355 87.6854C189.612 87.6854 189.87 87.6854 190.159 87.6532C190.449 87.621 190.642 87.621 190.738 87.5889C191.285 89.358 191.8 90.9985 192.346 92.5103C192.861 94.0221 193.279 95.2123 193.601 96.1129C193.923 97.0136 194.148 97.5604 194.212 97.7856H194.309C194.502 97.2709 194.952 96.0808 195.627 94.183C196.303 92.2851 197.075 90.0978 197.879 87.6532C197.879 87.6532 198.072 87.6532 198.426 87.6854L199.23 87.7175C199.487 87.7175 199.873 87.6854 200.388 87.6532C200.903 87.621 201.256 87.5889 201.449 87.5889L201.482 87.6854L201.385 88.4574C200.806 88.5217 200.388 88.6504 200.131 88.8112C199.873 88.972 199.745 89.2293 199.745 89.5832C199.745 89.8727 199.809 90.9985 199.938 92.9606C200.066 94.8906 200.195 96.5632 200.291 97.9786C200.356 98.5254 200.42 98.9436 200.484 99.2331C200.549 99.4904 200.645 99.6834 200.774 99.7799C200.903 99.8764 201.063 99.9407 201.289 99.9407C201.417 99.9407 201.546 99.9407 201.642 99.9085C201.739 99.9085 201.835 99.8764 201.868 99.8764L201.9 99.9729L201.707 100.906C201.578 100.906 201.321 100.874 200.935 100.874C200.549 100.874 200.163 100.841 199.745 100.841C199.359 100.841 198.973 100.874 198.49 100.906C198.008 100.938 197.718 100.97 197.589 101.002L197.686 100.069C198.104 100.005 198.426 99.9085 198.619 99.7477C198.812 99.5869 198.908 99.3617 198.908 99.0401C198.908 98.7506 198.812 97.3996 198.619 95.0193C198.426 92.639 198.297 90.9985 198.233 90.13H198.136L194.18 101.067L193.697 101.195L189.741 90.0657Z" fill="#E19543"></path>
    <path d="M211.421 100.198C210.553 99.6508 209.877 98.911 209.395 97.946C208.912 96.9811 208.687 95.8874 208.687 94.6329C208.687 93.2819 208.977 92.0596 209.588 90.966C210.199 89.8723 211.003 89.0038 212.032 88.3605C213.062 87.7172 214.22 87.3955 215.442 87.3955C216.568 87.3955 217.597 87.6528 218.466 88.1997C219.334 88.7465 220.042 89.4863 220.524 90.4513C221.007 91.4163 221.264 92.5099 221.264 93.7323C221.264 95.0832 220.975 96.3056 220.363 97.3992C219.752 98.525 218.916 99.3935 217.887 100.037C216.857 100.68 215.667 101.002 214.413 101.002C213.287 101.002 212.29 100.712 211.421 100.198ZM217.34 99.2649C218.015 98.8145 218.53 98.1712 218.916 97.367C219.302 96.5629 219.463 95.6301 219.463 94.6007C219.463 93.4428 219.27 92.4134 218.852 91.5128C218.466 90.6121 217.919 89.9045 217.211 89.3898C216.503 88.8752 215.699 88.6178 214.766 88.6178C213.93 88.6178 213.19 88.843 212.547 89.2933C211.904 89.7436 211.389 90.387 211.035 91.1911C210.681 91.9953 210.488 92.9281 210.488 93.9574C210.488 95.1154 210.681 96.1447 211.067 97.0454C211.453 97.946 212 98.6537 212.676 99.1684C213.351 99.683 214.155 99.9403 215.056 99.9403C215.892 99.9403 216.664 99.7152 217.34 99.2649Z" fill="#E19543"></path>
    <path d="M230.657 99.8117C229.885 99.0076 229.499 97.9139 229.499 96.4343V89.615C229.499 89.1647 229.434 88.8752 229.338 88.7144C229.241 88.5536 229.048 88.4892 228.727 88.4892C228.598 88.4892 228.469 88.4892 228.308 88.5214C228.18 88.5214 228.083 88.5536 228.019 88.5536L227.987 88.4571L228.115 87.5564C228.276 87.5564 228.598 87.5886 229.048 87.5886C229.499 87.5886 229.981 87.6207 230.431 87.6207C230.817 87.6207 231.236 87.5886 231.686 87.5564C232.168 87.4921 232.458 87.4599 232.587 87.4277L232.49 88.3606C231.975 88.4249 231.654 88.5536 231.461 88.7144C231.3 88.8752 231.203 89.1647 231.171 89.5507L231.01 95.598C231.01 96.9489 231.3 98.0104 231.879 98.7181C232.458 99.4579 233.326 99.8117 234.42 99.8117C235.546 99.8117 236.414 99.5222 236.993 98.9111C237.572 98.3321 237.862 97.4636 237.862 96.3378C237.862 95.2441 237.83 93.9896 237.798 92.5743C237.765 91.159 237.765 90.194 237.733 89.615C237.701 89.1325 237.637 88.843 237.572 88.6822C237.476 88.5536 237.283 88.4892 236.993 88.4892C236.833 88.4892 236.672 88.4892 236.479 88.5214C236.286 88.5214 236.189 88.5536 236.093 88.5536L236.061 88.4571L236.189 87.5564C236.35 87.5564 236.672 87.5886 237.122 87.5886C237.572 87.5886 238.055 87.6207 238.505 87.6207C238.891 87.6207 239.277 87.5886 239.695 87.5564C240.113 87.4921 240.371 87.4599 240.499 87.4277L240.403 88.3606C239.985 88.4249 239.695 88.4892 239.502 88.5536C239.309 88.6179 239.181 88.7465 239.116 88.8752C239.052 89.0039 239.02 89.229 239.02 89.5185V96.4343C239.02 97.8818 238.57 98.9754 237.669 99.7796C236.768 100.584 235.514 100.97 233.905 100.97C232.554 101.002 231.429 100.616 230.657 99.8117Z" fill="#E19543"></path>
    <path d="M255.843 100.552C255.457 100.198 255.103 99.7155 254.749 99.1366L252.562 95.1479H250.857L250.792 98.2037C250.792 98.7184 250.825 99.1044 250.889 99.3295C250.953 99.5547 251.082 99.7155 251.275 99.7799C251.468 99.8442 251.79 99.9085 252.272 99.9085L252.304 100.005L252.111 100.874C251.95 100.874 251.629 100.841 251.114 100.841C250.632 100.841 250.117 100.809 249.57 100.809C249.088 100.809 248.67 100.809 248.284 100.841C247.898 100.874 247.672 100.874 247.544 100.874L247.737 99.9407C248.187 99.8764 248.509 99.812 248.734 99.7155C248.959 99.619 249.12 99.4582 249.184 99.2652C249.281 99.0401 249.313 98.7506 249.313 98.3324L249.345 89.6797C249.345 89.2293 249.281 88.9399 249.184 88.779C249.088 88.6182 248.863 88.5539 248.573 88.5539C248.444 88.5539 248.316 88.5539 248.155 88.586C248.026 88.586 247.93 88.6182 247.865 88.6182L247.833 88.5217L247.962 87.621C248.123 87.621 248.444 87.6532 248.895 87.6532C249.345 87.6532 249.795 87.6854 250.246 87.6854C250.696 87.6854 251.211 87.6854 251.725 87.6532C252.24 87.621 252.594 87.621 252.787 87.5889C254.073 87.5889 255.071 87.8784 255.81 88.4574C256.55 89.0363 256.936 89.8083 256.936 90.8377C256.936 91.6418 256.679 92.4138 256.132 93.0893C255.585 93.7648 254.845 94.3438 253.913 94.7619L256.164 98.3324C256.55 99.0079 256.936 99.4582 257.322 99.7155C257.708 99.9729 258.159 100.102 258.705 100.102L258.802 100.198L258.673 100.906L256.936 101.131C256.582 101.067 256.229 100.906 255.843 100.552ZM253.623 93.9256C254.041 93.7005 254.395 93.3788 254.717 92.9285C255.038 92.4781 255.199 91.8991 255.199 91.1915C255.199 89.3902 253.945 88.4895 251.436 88.4895C251.307 88.4895 251.211 88.5217 251.146 88.586C251.114 88.6504 251.082 88.779 251.05 88.972C250.921 91.0628 250.857 92.7676 250.857 94.0221L252.98 94.2151C253.012 94.2151 253.205 94.1508 253.623 93.9256Z" fill="#E19543"></path>
    <path d="M91.6017 112.871H101.155L101.091 113.257H96.5232L94.7862 127.571H94.368L96.105 113.257H91.5696L91.6017 112.871Z" fill="#F6CE7B"></path>
    <path d="M103.6 127.667C102.86 127.667 102.184 127.506 101.605 127.153C101.026 126.799 100.576 126.348 100.254 125.769C99.9328 125.19 99.772 124.547 99.772 123.839C99.772 123.421 99.8363 122.971 99.9971 122.456C100.158 121.942 100.383 121.459 100.737 121.009C101.059 120.558 101.509 120.172 102.056 119.883C102.603 119.593 103.278 119.433 104.082 119.433C104.726 119.433 105.272 119.561 105.787 119.786C106.302 120.012 106.72 120.333 107.106 120.751C107.492 121.17 107.717 121.62 107.878 122.167L107.781 122.424L108.232 119.593H108.553L107.621 127.506H107.235L107.524 124.997L107.556 125.319C107.363 125.641 107.138 125.962 106.881 126.252C106.623 126.541 106.302 126.767 105.98 126.992C105.658 127.185 105.272 127.346 104.886 127.474C104.5 127.603 104.018 127.667 103.6 127.667ZM103.728 127.313C104.372 127.313 104.983 127.185 105.562 126.895C106.109 126.606 106.591 126.22 106.945 125.737C107.331 125.223 107.556 124.676 107.653 124.032L107.749 123.164C107.717 122.553 107.524 122.006 107.202 121.491C106.881 121.009 106.463 120.591 105.916 120.301C105.369 120.012 104.79 119.851 104.147 119.851C103.407 119.851 102.796 119.979 102.313 120.269C101.798 120.526 101.412 120.88 101.091 121.298C100.801 121.716 100.576 122.167 100.415 122.617C100.287 123.067 100.222 123.486 100.222 123.807C100.222 124.451 100.383 125.03 100.673 125.576C100.962 126.123 101.38 126.541 101.927 126.831C102.474 127.12 103.021 127.313 103.728 127.313Z" fill="#F6CE7B"></path>
    <path d="M112.799 119.658L112.574 121.877L112.542 121.684C112.928 121.041 113.443 120.494 114.118 120.108C114.794 119.722 115.501 119.497 116.305 119.497C116.981 119.497 117.528 119.69 117.946 120.108C118.364 120.526 118.557 121.009 118.493 121.62L118.461 121.588C118.814 120.977 119.329 120.462 119.972 120.076C120.616 119.69 121.356 119.497 122.095 119.497C122.835 119.497 123.414 119.722 123.8 120.14C124.186 120.559 124.347 121.105 124.283 121.749L123.575 127.571H123.157L123.865 121.781C123.897 121.298 123.768 120.88 123.479 120.494C123.189 120.14 122.739 119.915 122.128 119.883C121.516 119.883 120.937 120.012 120.391 120.269C119.844 120.526 119.393 120.88 119.007 121.331C118.621 121.781 118.396 122.296 118.3 122.875L117.721 127.571H117.303L118.01 121.781C118.042 121.298 117.914 120.88 117.624 120.494C117.335 120.14 116.884 119.915 116.273 119.883C115.662 119.883 115.083 120.012 114.504 120.301C113.925 120.591 113.475 120.945 113.089 121.395C112.703 121.845 112.478 122.392 112.413 123.003L111.834 127.571H111.513L112.478 119.658H112.799Z" fill="#F6CE7B"></path>
    <path d="M133.032 120.044H137.889L137.825 120.462H132.968L133.032 120.044ZM134.351 127.571L136.152 112.871H139.208C140.591 112.871 141.781 113.032 142.714 113.418C143.647 113.772 144.419 114.254 144.966 114.898C145.512 115.509 145.898 116.216 146.124 117.021C146.349 117.825 146.477 118.629 146.477 119.53C146.477 120.848 146.252 122.006 145.834 123.036C145.416 124.033 144.837 124.869 144.065 125.577C143.325 126.252 142.424 126.767 141.427 127.121C140.43 127.475 139.304 127.635 138.146 127.635H134.351V127.571ZM134.833 127.153H138.275C139.336 127.153 140.334 126.992 141.266 126.67C142.199 126.349 143.036 125.866 143.743 125.223C144.451 124.58 145.03 123.775 145.448 122.843C145.866 121.91 146.059 120.784 146.059 119.53C146.059 118.693 145.963 117.889 145.738 117.149C145.512 116.409 145.159 115.734 144.644 115.155C144.129 114.576 143.454 114.126 142.585 113.804C141.717 113.482 140.655 113.321 139.401 113.321H136.538L134.833 127.153Z" fill="#F6CE7B"></path>
    <path d="M152.653 127.668C151.913 127.668 151.238 127.507 150.659 127.153C150.08 126.799 149.63 126.349 149.308 125.77C148.986 125.191 148.825 124.547 148.825 123.84C148.825 123.422 148.89 122.971 149.051 122.457C149.211 121.942 149.437 121.459 149.79 121.009C150.112 120.559 150.562 120.173 151.109 119.883C151.656 119.594 152.332 119.433 153.136 119.433C153.779 119.433 154.326 119.562 154.841 119.787C155.355 120.012 155.773 120.334 156.159 120.752C156.545 121.17 156.771 121.62 156.931 122.167L156.835 122.424L157.285 119.594H157.607L156.674 127.507H156.224L156.513 124.998L156.545 125.319C156.352 125.641 156.127 125.963 155.87 126.252C155.613 126.542 155.291 126.767 154.969 126.992C154.648 127.185 154.262 127.346 153.876 127.475C153.49 127.603 153.071 127.668 152.653 127.668ZM152.75 127.314C153.393 127.314 154.004 127.185 154.583 126.896C155.13 126.606 155.613 126.22 155.966 125.738C156.352 125.223 156.577 124.676 156.674 124.033L156.771 123.164C156.738 122.553 156.545 122.006 156.224 121.492C155.902 121.009 155.484 120.591 154.937 120.301C154.39 120.012 153.811 119.851 153.168 119.851C152.428 119.851 151.817 119.98 151.334 120.269C150.82 120.527 150.434 120.88 150.112 121.299C149.823 121.717 149.597 122.167 149.437 122.617C149.308 123.068 149.244 123.486 149.244 123.808C149.244 124.451 149.404 125.03 149.694 125.577C149.983 126.124 150.402 126.542 150.948 126.831C151.495 127.121 152.074 127.314 152.75 127.314ZM153.136 118.339C153.49 118.082 153.779 117.825 154.036 117.632C154.294 117.439 154.422 117.181 154.487 116.892C154.519 116.602 154.487 116.345 154.39 116.152C154.262 115.959 154.069 115.863 153.747 115.83C153.49 115.798 153.264 115.83 153.071 115.959C152.878 116.056 152.685 116.249 152.428 116.506L152.203 116.345C152.46 116.023 152.718 115.798 152.975 115.67C153.232 115.541 153.522 115.477 153.811 115.477C154.101 115.477 154.358 115.605 154.583 115.798C154.808 115.991 154.905 116.345 154.841 116.828C154.808 117.181 154.648 117.503 154.358 117.728C154.069 117.953 153.747 118.211 153.361 118.468L153.136 118.339Z" fill="#F6CE7B"></path>
    <path d="M164.105 127.699C163.558 127.699 163.043 127.603 162.561 127.41C162.078 127.217 161.692 126.96 161.338 126.606C160.984 126.252 160.727 125.866 160.534 125.383C160.341 124.901 160.245 124.418 160.245 123.872C160.245 123.357 160.341 122.842 160.502 122.328C160.663 121.813 160.952 121.331 161.306 120.912C161.66 120.494 162.11 120.14 162.657 119.883C163.204 119.626 163.847 119.497 164.587 119.497C165.327 119.497 166.002 119.658 166.581 119.98C167.16 120.301 167.611 120.752 167.965 121.331C168.286 121.91 168.479 122.553 168.479 123.293C168.479 123.711 168.415 124.097 168.318 124.515C168.222 124.933 168.029 125.319 167.804 125.705C167.579 126.091 167.289 126.413 166.935 126.702C166.581 126.992 166.163 127.217 165.713 127.378C165.23 127.603 164.684 127.699 164.105 127.699ZM164.105 127.346C165.005 127.346 165.745 127.153 166.324 126.734C166.903 126.348 167.321 125.834 167.611 125.223C167.9 124.611 168.029 124 168.029 123.325C168.029 122.842 167.932 122.392 167.772 121.974C167.611 121.556 167.353 121.17 167.064 120.88C166.774 120.591 166.388 120.301 165.97 120.14C165.552 119.947 165.07 119.883 164.587 119.883C163.686 119.883 162.947 120.076 162.368 120.494C161.789 120.88 161.37 121.395 161.081 122.006C160.791 122.617 160.663 123.228 160.663 123.872C160.663 124.515 160.824 125.094 161.113 125.641C161.403 126.155 161.821 126.606 162.335 126.895C162.85 127.185 163.429 127.346 164.105 127.346Z" fill="#F6CE7B"></path>
  </g>
  <defs>
    <clipPath id="clip0_1451_5834">
      <rect width="257.941" height="127.7" fill="white" transform="translate(0.86084)"></rect>
    </clipPath>
  </defs>
</svg>
