<svg width="100" height="41" viewBox="0 0 100 41" fill="none" xmlns="http://www.w3.org/2000/svg">
<path d="M18.9375 36.5861L27.4895 24.1855L20.0171 12.561H26.7061L30.8975 19.1655L34.9824 12.561H41.6934L34.2836 24.1826L42.8765 36.5832H35.7659L30.8975 28.8146L26.0496 36.5832L18.9375 36.5861Z" fill="#FAFAFA"/>
<path d="M2.76367 36.5862V17.3696V12.3685C2.76367 10.0684 3.44449 8.11246 4.80613 6.50087C6.2553 4.80563 8.12317 3.9585 10.4097 3.95947H11.9387V9.62874C10.6159 9.62874 9.73428 9.75956 9.29369 10.0212C8.68679 10.3917 8.38382 11.1766 8.3848 12.3758H11.9387V17.3769H8.3848V36.5862H2.76367Z" fill="#FAFAFA"/>
<path d="M13.3184 36.5862V12.3685H18.938V36.5862H13.3184Z" fill="#FAFAFA"/>
<path d="M97.3594 24.1461V36.6182H91.7397V34.5758C89.9111 35.7799 87.7981 36.4821 85.6125 36.6121C83.427 36.7421 81.2456 36.2953 79.2872 35.3164C77.3287 34.3376 75.662 32.8611 74.4541 31.035C73.2462 29.2089 72.5395 27.0974 72.405 24.9121V22.4421C72.405 22.165 72.3977 21.9111 72.3846 21.6777C72.3743 21.469 72.3465 21.2616 72.3014 21.0577C72.1779 20.1492 71.9347 19.429 71.572 18.897C71.1932 18.3494 70.677 17.9112 70.0751 17.6263C69.4429 17.3119 68.746 17.1496 68.04 17.1522C67.2745 17.1411 66.5171 17.3111 65.8298 17.6482C65.1447 17.9987 64.5663 18.5267 64.1549 19.1771C63.9069 19.5769 63.6866 20.1604 63.4941 20.9278C63.4129 21.351 63.3579 21.7788 63.3292 22.2087C63.2864 22.733 63.2655 23.3321 63.2665 24.0061V36.6182H57.6264V22.4421C57.6419 22.0054 57.6076 21.5683 57.5243 21.1394C57.4221 20.399 57.1581 19.6902 56.7511 19.0633C56.3481 18.4703 55.8002 17.9902 55.1594 17.6686C54.5124 17.3288 53.7924 17.1515 53.0615 17.1522C51.6843 17.1522 50.6305 17.5582 49.9001 18.3704C49.2951 19.0191 48.8891 19.9766 48.6819 21.2429C48.5564 22.0152 48.4947 23.1585 48.4966 24.6728V36.6357H42.877V12.4006H48.0225V14.5685C48.5195 13.6037 49.4152 12.8528 50.7098 12.316C51.8196 11.8716 53.0054 11.6477 54.2009 11.6565C55.4124 11.6531 56.6106 11.9103 57.7139 12.4108C58.8017 12.8904 59.7539 13.6317 60.4858 14.5685L60.7776 14.8982L61.0242 15.2921C61.0925 15.1472 61.1836 15.0142 61.2941 14.8982L61.6238 14.5685C62.4561 13.6176 63.5077 12.884 64.6874 12.4312C65.8919 11.9269 67.1836 11.6637 68.4893 11.6565C69.8549 11.6333 71.2131 11.8602 72.4969 12.3262C73.717 12.8074 74.8048 13.5726 75.67 14.5583C75.8515 14.7582 76.0229 14.9671 76.1835 15.1841C76.8738 16.1329 77.3696 17.2088 77.6424 18.3499C77.905 19.4811 78.0359 20.9273 78.0349 22.6887V23.564C78.0188 23.7522 78.0115 23.9463 78.0115 24.1388C78.0115 24.3314 78.0188 24.5269 78.0349 24.7224C78.1722 26.3627 78.8939 27.8991 80.0686 29.0521C81.2433 30.2051 82.7929 30.898 84.4355 31.0047C86.078 31.1114 87.7043 30.6249 89.0183 29.6335C90.3323 28.6422 91.2468 27.2121 91.5952 25.6033C91.9436 23.9946 91.7028 22.3143 90.9166 20.8681C90.1305 19.422 88.8513 18.3062 87.3117 17.7238C85.7722 17.1413 84.0747 17.131 82.5282 17.6947C80.9818 18.2584 79.6891 19.3586 78.8854 20.7951C78.8547 19.7687 78.7312 18.7472 78.5163 17.743C78.2351 16.5595 77.712 15.4468 76.9801 14.4751C78.8102 12.9798 81.0271 12.0345 83.3731 11.7491C85.7191 11.4636 88.098 11.8497 90.2333 12.8625C92.3686 13.8753 94.1727 15.4732 95.4359 17.4706C96.6991 19.468 97.3697 21.7828 97.3696 24.1461H97.3594Z" fill="#FAFAFA"/>
</svg>
